<svg xmlns="http://www.w3.org/2000/svg" width="1200" height="630" viewBox="0 0 1200 630" role="img" aria-labelledby="title desc">
  <title id="title">PaprFeed</title>
  <desc id="desc">A calm feed for discovering recent research papers</desc>
  <rect width="1200" height="630" fill="#F8F7F2"/>
  <g stroke="#E5E1D8" opacity="0.72">
    <path d="M0 70h1200M0 134h1200M0 198h1200M0 262h1200M0 326h1200M0 390h1200M0 454h1200M0 518h1200M0 582h1200"/>
    <path d="M92 0v630M1108 0v630" stroke="#2F6FED" opacity="0.35"/>
  </g>
  <g transform="translate(100 90) scale(1.08)">
    <path d="M47 17C36 6 18 7 7 10v42c13-3 29-2 40 9V17Z" fill="#FFFFFF" stroke="#2F6FED" stroke-width="5" stroke-linejoin="round"/>
    <path d="M49 17C60 6 78 7 89 10v42c-13-3-29-2-40 9V17Z" fill="#FFFFFF" stroke="#2F6FED" stroke-width="5" stroke-linejoin="round"/>
    <path d="M48 17v47" stroke="#2F6FED" stroke-width="5" stroke-linecap="round"/>
    <path d="M48 60l-9 7V55" fill="#2F6FED"/>
    <path d="M63 24h17M63 34h17M63 44h13" stroke="#2F6FED" stroke-width="4.5" stroke-linecap="round"/>
  </g>
  <text x="220" y="153" fill="#1B1D1F" font-family="Georgia, serif" font-size="72" font-weight="700">PaprFeed</text>
  <text x="100" y="315" fill="#1B1D1F" font-family="Georgia, serif" font-size="64" font-weight="700">Your daily paper feed,</text>
  <rect x="99" y="339" width="484" height="72" fill="#FFF3C4"/>
  <text x="100" y="397" fill="#1B1D1F" font-family="Georgia, serif" font-size="64" font-weight="700">filtered by signal.</text>
  <text x="100" y="486" fill="#6B7280" font-family="Arial, sans-serif" font-size="30">Recent research from PubMed, arXiv, bioRxiv and medRxiv.</text>
  <g transform="translate(100 536)">
    <rect width="154" height="48" rx="10" fill="#EDF4FF" stroke="#2F6FED"/>
    <text x="77" y="31" text-anchor="middle" fill="#174EA6" font-family="Arial, sans-serif" font-size="19" font-weight="700">Search papers</text>
    <rect x="170" width="150" height="48" rx="10" fill="#FFFFFF" stroke="#E5E1D8"/>
    <text x="245" y="31" text-anchor="middle" fill="#1B1D1F" font-family="Arial, sans-serif" font-size="19" font-weight="700">Save findings</text>
  </g>
</svg>
